<svg width="22" height="24" viewBox="0 0 22 24" fill="none" xmlns="http://www.w3.org/2000/svg">
<path d="M21 10.9414L11.5445 20.397C10.3861 21.5553 8.81499 22.2061 7.1768 22.2061C5.53861 22.2061 3.96752 21.5553 2.80914 20.397C1.65077 19.2386 1 17.6675 1 16.0293C1 14.3911 1.65077 12.82 2.80914 11.6616L12.2647 2.2061C13.0369 1.43385 14.0843 1 15.1765 1C16.2686 1 17.316 1.43385 18.0882 2.2061C18.8605 2.97835 19.2943 4.02574 19.2943 5.11787C19.2943 6.20999 18.8605 7.25739 18.0882 8.02964L8.6224 17.4852C8.23627 17.8713 7.71257 18.0882 7.16651 18.0882C6.62045 18.0882 6.09675 17.8713 5.71063 17.4852C5.3245 17.0991 5.10758 16.5754 5.10758 16.0293C5.10758 15.4832 5.3245 14.9595 5.71063 14.5734L14.4459 5.84838" stroke="#A9A9A9" stroke-width="2" stroke-linecap="round" stroke-linejoin="round"/>
</svg>
