<svg width="35" height="35" viewBox="0 0 35 35" fill="none" xmlns="http://www.w3.org/2000/svg">
<circle cx="17.5" cy="17.5" r="17.5" fill="#111B21"/>
<path d="M7 13.3716C7 12.2923 8.04415 11.5209 9.07583 11.8379L12.3396 12.8408C13.9934 13.349 15.7138 13.6073 17.4439 13.6073C19.1405 13.6073 20.8281 13.3589 22.4527 12.8698L25.8595 11.8443C26.9259 11.5233 28 12.3217 28 13.4354V17.5H7V13.3716Z" fill="white"/>
<path d="M28 21.6284C28 22.7077 26.9558 23.4791 25.9242 23.1621L22.6604 22.1592C21.0066 21.651 19.2862 21.3927 17.5561 21.3927C15.8595 21.3927 14.1719 21.6411 12.5473 22.1302L9.14053 23.1557C8.07411 23.4767 7 22.6783 7 21.5646V17.5L28 17.5V21.6284Z" fill="white"/>
</svg>
