<svg width="434" height="260" viewBox="0 0 434 260" fill="none" xmlns="http://www.w3.org/2000/svg">
<path d="M0.333374 13.5342C0.333374 6.80775 6.84089 1.99959 13.2707 3.97535L126.103 38.647C149.895 45.9578 174.646 49.6747 199.536 49.6747H231.83C256.239 49.6747 280.516 46.1001 303.889 39.0645L420.784 3.87769C427.202 1.94578 433.667 6.75078 433.667 13.4533V130H0.333374V13.5342Z" fill="white"/>
<path d="M433.667 246.466C433.667 253.192 427.159 258 420.729 256.025L307.896 221.353C284.105 214.042 259.354 210.325 234.464 210.325H202.17C177.761 210.325 153.484 213.9 130.111 220.935L13.2155 256.122C6.79749 258.054 0.33316 253.249 0.33316 246.547V130L433.667 130V246.466Z" fill="white"/>
</svg>
